:SAMPLES-PER-SECOND 30
:FRAME-RANGE 1-2045
:FULLY-SPECIFIED
:DEGREES
192
root  -11.8077 35.9326 3.21026 -79.0658 -84.9742 74.631
RightUpLeg  -24.5289 -3.82734 -10.274
RightLeg  80.5414 -0.246056 -3.94231
RightFoot  -0.282308 -1.17839 12.1103
RightToes  5.82063e-011 0 -3.6325e-017
Spine  16.7432 2.65899 -1.0582
Spine1  2.59336 4.01798 -8.91119
HEad  -1.92235 15.6179 -4.5352
LeftShoulder1  1.61903 -0.69437 -32.5196
LeftArm  -3.20796 -1.53509 -28.5521
LeftForeArm  11.3374 -45.1578 -10.48
LeftHand  0.27381 -0.955894 -5.07807
RightShoulder  14.3401 21.7366 49.6359
RightArm  23.5731 10.5889 23.6858
RightForeArm  -3.13472 35.908 8.31189
RightHand  0.670368 3.94711 8.04891
LeftUpLeg  -23.4347 3.77974 -14.1839
LeftLeg  44.1399 8.84561 9.51781
LeftFoot  -15.8149 0.362232 6.82894
LeftToes  -3.90176e-010 -2.48536e-010 1.05482e-011
193
root  -13.2611 36.0916 3.03576 -54.8475 -84.5545 50.6546
RightUpLeg  -28.1213 -4.131 -11.2445
RightLeg  76.1081 -1.70953 -9.2821
RightFoot  -3.11237 -0.695324 9.35029
RightToes  5.82063e-011 0 -3.6325e-017
Spine  16.8078 1.60786 -0.852759
Spine1  1.8709 2.75618 -7.33302
HEad  -1.92031 15.6612 -5.25649
LeftShoulder1  1.74052 -0.938179 -33.1384
LeftArm  -1.36237 -3.53378 -30.0093
LeftForeArm  11.3313 -44.1684 -10.1078
LeftHand  0.276945 -1.07108 -4.89638
RightShoulder  13.6943 21.1086 48.6143
RightArm  24.2567 10.2993 23.2632
RightForeArm  -7.63091 34.3765 8.11855
RightHand  0.575269 3.105 7.62071
LeftUpLeg  -20.981 2.86085 -13.1442
LeftLeg  44.4226 7.82477 8.56827
LeftFoot  -18.2708 0.466945 5.89195
LeftToes  -3.90176e-010 -2.48536e-010 1.05482e-011
194
root  -14.6774 36.4024 2.88569 -35.7356 -83.6808 31.8084
RightUpLeg  -30.1352 -3.98342 -11.6859
RightLeg  67.5276 -4.58643 -12.7338
RightFoot  -4.27878 -0.612761 9.4355
RightToes  5.82063e-011 0 -3.6325e-017
Spine  16.8126 0.901898 0.110698
Spine1  1.55112 2.0262 -5.92623
HEad  -2.62182 15.1753 -5.81125
LeftShoulder1  1.83035 -1.17768 -33.0565
LeftArm  0.770104 -5.64033 -32.3751
LeftForeArm  13.0537 -44.0013 -9.92685
LeftHand  0.283633 -1.38731 -4.75013
RightShoulder  12.6521 19.8184 47.4015
RightArm  23.4463 9.43347 22.2094
RightForeArm  -9.54033 34.4106 8.2304
RightHand  0.722972 3.51995 9.14772
LeftUpLeg  -18.006 2.03762 -11.7079
LeftLeg  43.2802 7.01731 7.44729
LeftFoot  -20.0027 0.489347 4.87078
LeftToes  -3.90176e-010 -2.48536e-010 1.05482e-011
195
root  -16.073 36.7727 2.73985 -25.4283 -82.9013 22.1259
RightUpLeg  -30.8351 -2.67107 -12.2199
RightLeg  55.4117 -7.0768 -11.2922
RightFoot  -3.71101 -0.653623 9.40102
RightToes  5.82063e-011 0 -3.6325e-017
Spine  16.6762 0.491199 1.23341
Spine1  1.07697 1.70695 -5.1417
HEad  -3.15951 14.9189 -6.30579
LeftShoulder1  1.87422 -1.32001 -32.8153
LeftArm  2.52202 -7.21925 -34.2263
LeftForeArm  15.5033 -44.4846 -9.93294
LeftHand  0.295664 -1.7984 -4.63358
RightShoulder  11.6838 18.5643 46.2504
RightArm  22.3914 8.54938 21.081
RightForeArm  -11.1228 34.2387 8.26446
RightHand  0.745751 3.41323 9.56488
LeftUpLeg  -15.142 1.66592 -10.3519
LeftLeg  41.2173 6.37326 6.35426
LeftFoot  -21.1906 0.464753 3.91409
LeftToes  -3.90176e-010 -2.48536e-010 1.05482e-011
196
root  -17.488 37.1004 2.57858 -17.8035 -81.9583 15.2874
RightUpLeg  -30.1598 -0.956793 -12.9298
RightLeg  41.1318 -7.67903 -7.40345
RightFoot  -2.90079 -0.777236 10.2382
RightToes  5.82063e-011 0 -3.6325e-017
Spine  16.2603 0.0479731 2.30474
Spine1  0.711993 1.3077 -4.39729
HEad  -3.30734 14.9978 -6.95509
LeftShoulder1  1.89855 -1.39187 -32.7432
LeftArm  3.1542 -8.24506 -35.12
LeftForeArm  17.3612 -44.9667 -9.98023
LeftHand  0.294612 -2.04361 -4.44157
RightShoulder  10.9699 17.8218 44.8969
RightArm  21.831 8.05188 20.1689
RightForeArm  -13.9195 33.6608 8.24338
RightHand  0.770552 3.13608 10.2324
LeftUpLeg  -12.338 1.59098 -8.95747
LeftLeg  38.8894 5.31664 4.9736
LeftFoot  -21.6933 0.528374 4.39083
LeftToes  -3.90176e-010 -2.48536e-010 1.05482e-011
197
root  -18.9659 37.3189 2.37885 -11.4992 -80.6065 9.34452
RightUpLeg  -28.0579 1.708 -13.8263
RightLeg  28.4921 -5.96235 -3.72429
RightFoot  -4.04359 -0.722527 10.8658
RightToes  5.82063e-011 0 -3.6325e-017
Spine  15.7842 -0.427754 3.43872
Spine1  0.845399 0.822486 -3.57913
HEad  -3.16867 15.1799 -7.96536
LeftShoulder1  1.92931 -1.47335 -32.7274
LeftArm  2.83714 -9.07395 -35.16
LeftForeArm  17.6277 -45.1528 -10.0308
LeftHand  0.283415 -2.00053 -4.29522
RightShoulder  10.6457 17.8563 43.4251
RightArm  21.1357 8.37027 19.1044
RightForeArm  -16.5137 32.5597 8.06347
RightHand  0.8158 2.9702 11.0713
LeftUpLeg  -9.76082 2.35728 -7.16067
LeftLeg  37.7444 3.57965 3.35219
LeftFoot  -22.7767 0.452882 3.15507
LeftToes  -3.90176e-010 -2.48536e-010 1.05482e-011
198
root  -20.416 37.308 2.1042 -6.62207 -78.466 4.69918
RightUpLeg  -26.1543 2.79519 -14.4031
RightLeg  21.9046 -7.02317 -3.31198
RightFoot  -4.68637 -0.779143 12.7998
RightToes  5.82063e-011 0 -3.6325e-017
Spine  15.7511 -0.887636 4.63246
Spine1  0.512265 0.272951 -2.52026
HEad  -2.58818 14.8821 -8.68009
LeftShoulder1  1.9394 -1.50596 -32.677
LeftArm  2.43686 -10.3858 -34.5108
LeftForeArm  16.5544 -44.744 -9.95469
LeftHand  0.280619 -1.87642 -4.33553
RightShoulder  10.4656 18.2924 41.7196
RightArm  20.1216 9.71796 17.9698
RightForeArm  -18.102 30.8561 7.67797
RightHand  0.867548 2.98648 11.7584
LeftUpLeg  -9.30736 4.01668 -4.8169
LeftLeg  40.6571 0.707282 1.04386
LeftFoot  -22.8399 0.197157 0.595986
LeftToes  -3.90176e-010 -2.48536e-010 1.05482e-011
199
root  -21.8051 36.9394 1.78584 -4.80473 -75.1916 2.75305
RightUpLeg  -24.9639 0.91583 -14.661
RightLeg  23.6248 -7.22733 -3.66943
RightFoot  0.684043 -2.09 19.707
RightToes  5.82063e-011 0 -3.6325e-017
Spine  16.4041 -1.48846 6.01742
Spine1  -0.255453 -0.268248 -1.73283
HEad  -1.93444 13.6185 -8.89408
LeftShoulder1  1.98128 -1.65249 -32.3915
LeftArm  2.3753 -12.703 -33.5565
LeftForeArm  14.7777 -43.5241 -9.63555
LeftHand  0.281993 -1.82284 -4.395
RightShoulder  10.2139 18.9237 39.3667
RightArm  18.9839 12.3047 17.1085
RightForeArm  -20.8582 28.5119 7.19691
RightHand  0.850827 2.8267 11.766
LeftUpLeg  -11.6025 6.45159 -2.38337
LeftLeg  48.9711 -1.10205 -0.915806
LeftFoot  -21.0917 -0.269544 -4.64095
LeftToes  -3.90176e-010 -2.48536e-010 1.05482e-011
